HIERARCHY
ROOT Hips
{
  OFFSET 5.84602e-005 68.8428 3.50346
  CHANNELS 6 Xposition Yposition Zposition Zrotation Xrotation Yrotation
  JOINT Spine
  {
    OFFSET 0 8.597 -4.6522
    CHANNELS 3 Zrotation Xrotation Yrotation
    JOINT Spine1
    {
      OFFSET 0 7.8454 0.4098
      CHANNELS 3 Zrotation Xrotation Yrotation
      JOINT Spine2
      {
        OFFSET 0 9.7078 -2.1609
        CHANNELS 3 Zrotation Xrotation Yrotation
        JOINT Neck
        {
          OFFSET 0 21.8761 -0.4549
          CHANNELS 3 Zrotation Xrotation Yrotation
          JOINT Head
          {
            OFFSET 0 12.3537 3.3602
            CHANNELS 3 Zrotation Xrotation Yrotation
            End Site
            {
              OFFSET 0.0001 18.9506 0.5657
            }
          }
        }
        JOINT LeftShoulder
        {
          OFFSET 2.2086 21.1115 7.2329
          CHANNELS 3 Zrotation Xrotation Yrotation
          JOINT LeftArm
          {
            OFFSET 13.1193 3.0282 -4.8998
            CHANNELS 3 Zrotation Xrotation Yrotation
            JOINT LeftForeArm
            {
              OFFSET 27.4081 -0.0973053 -0.2375
              CHANNELS 3 Zrotation Xrotation Yrotation
              JOINT LeftHand
              {
                OFFSET 22.8641 0.0662994 -0.1369
                CHANNELS 3 Zrotation Xrotation Yrotation
                JOINT LeftHandIndex1
                {
                  OFFSET 8.8614 0.775009 2.4612
                  CHANNELS 3 Zrotation Xrotation Yrotation
                  JOINT LeftHandIndex2
                  {
                    OFFSET 3.3146 -0.808304 0.5841
                    CHANNELS 3 Zrotation Xrotation Yrotation
                    JOINT LeftHandIndex3
                    {
                      OFFSET 2.2628 -0.552002 0.3989
                      CHANNELS 3 Zrotation Xrotation Yrotation
                      End Site
                      {
                        OFFSET 1.6102 -0.4807 0.2612
                      }
                    }
                  }
                }
                JOINT LeftHandMiddle1
                {
                  OFFSET 8.9937 0.895004 0.2143
                  CHANNELS 3 Zrotation Xrotation Yrotation
                  JOINT LeftHandMiddle2
                  {
                    OFFSET 4.0984 0.0113983 -0.0242
                    CHANNELS 3 Zrotation Xrotation Yrotation
                    JOINT LeftHandMiddle3
                    {
                      OFFSET 2.2716 0.00689697 -0.0138001
                      CHANNELS 3 Zrotation Xrotation Yrotation
                      End Site
                      {
                        OFFSET 2.0404 -0.1441 0.0027
                      }
                    }
                  }
                }
                JOINT LeftHandRing1
                {
                  OFFSET 8.5234 0.597198 -2.0164
                  CHANNELS 3 Zrotation Xrotation Yrotation
                  JOINT LeftHandRing2
                  {
                    OFFSET 3.7188 -0.188293 -0.2328
                    CHANNELS 3 Zrotation Xrotation Yrotation
                    JOINT LeftHandRing3
                    {
                      OFFSET 2.1191 -0.106598 -0.1332
                      CHANNELS 3 Zrotation Xrotation Yrotation
                      End Site
                      {
                        OFFSET 1.8737 -0.2304 -0.0886
                      }
                    }
                  }
                }
                JOINT LeftHandPinky1
                {
                  OFFSET 7.9094 -0.601089 -3.4825
                  CHANNELS 3 Zrotation Xrotation Yrotation
                  JOINT LeftHandPinky2
                  {
                    OFFSET 2.2874 -0.477005 -0.6314
                    CHANNELS 3 Zrotation Xrotation Yrotation
                    JOINT LeftHandPinky3
                    {
                      OFFSET 1.6774 -0.349396 -0.4633
                      CHANNELS 3 Zrotation Xrotation Yrotation
                      End Site
                      {
                        OFFSET 1.4888 -0.4091 -0.3416
                      }
                    }
                  }
                }
                JOINT LeftHandThumb1
                {
                  OFFSET 1.833 -1.3875 1.3896
                  CHANNELS 3 Zrotation Xrotation Yrotation
                  JOINT LeftHandThumb2
                  {
                    OFFSET 3.4129 -1.121 2.5732
                    CHANNELS 3 Zrotation Xrotation Yrotation
                    JOINT LeftHandThumb3
                    {
                      OFFSET 2.2474 -0.804199 1.6192
                      CHANNELS 3 Zrotation Xrotation Yrotation
                      End Site
                      {
                        OFFSET 1.6527 -0.5689 1.1317
                      }
                    }
                  }
                }
              }
            }
          }
        }
        JOINT RightShoulder
        {
          OFFSET -2.2086 21.1115 7.2329
          CHANNELS 3 Zrotation Xrotation Yrotation
          JOINT RightArm
          {
            OFFSET -13.1216 3.0287 -4.9007
            CHANNELS 3 Zrotation Xrotation Yrotation
            JOINT RightForeArm
            {
              OFFSET -27.4081 -0.0973053 -0.2375
              CHANNELS 3 Zrotation Xrotation Yrotation
              JOINT RightHand
              {
                OFFSET -22.8641 0.0664063 -0.1369
                CHANNELS 3 Zrotation Xrotation Yrotation
                JOINT RightHandIndex1
                {
                  OFFSET -8.8614 0.774994 2.4612
                  CHANNELS 3 Zrotation Xrotation Yrotation
                  JOINT RightHandIndex2
                  {
                    OFFSET -3.3146 -0.808304 0.5841
                    CHANNELS 3 Zrotation Xrotation Yrotation
                    JOINT RightHandIndex3
                    {
                      OFFSET -2.2628 -0.552002 0.3989
                      CHANNELS 3 Zrotation Xrotation Yrotation
                      End Site
                      {
                        OFFSET -1.6102 -0.4807 0.2612
                      }
                    }
                  }
                }
                JOINT RightHandMiddle1
                {
                  OFFSET -8.9937 0.894989 0.2143
                  CHANNELS 3 Zrotation Xrotation Yrotation
                  JOINT RightHandMiddle2
                  {
                    OFFSET -4.0984 0.0113983 -0.0242
                    CHANNELS 3 Zrotation Xrotation Yrotation
                    JOINT RightHandMiddle3
                    {
                      OFFSET -2.2716 0.00691223 -0.0138001
                      CHANNELS 3 Zrotation Xrotation Yrotation
                      End Site
                      {
                        OFFSET -2.0404 -0.1441 0.0027
                      }
                    }
                  }
                }
                JOINT RightHandRing1
                {
                  OFFSET -8.5234 0.597198 -2.0164
                  CHANNELS 3 Zrotation Xrotation Yrotation
                  JOINT RightHandRing2
                  {
                    OFFSET -3.7188 -0.188309 -0.2328
                    CHANNELS 3 Zrotation Xrotation Yrotation
                    JOINT RightHandRing3
                    {
                      OFFSET -2.1191 -0.106598 -0.1332
                      CHANNELS 3 Zrotation Xrotation Yrotation
                      End Site
                      {
                        OFFSET -1.8737 -0.2304 -0.0886
                      }
                    }
                  }
                }
                JOINT RightHandPinky1
                {
                  OFFSET -7.9094 -0.601105 -3.4825
                  CHANNELS 3 Zrotation Xrotation Yrotation
                  JOINT RightHandPinky2
                  {
                    OFFSET -2.2874 -0.477005 -0.6314
                    CHANNELS 3 Zrotation Xrotation Yrotation
                    JOINT RightHandPinky3
                    {
                      OFFSET -1.6774 -0.349396 -0.4633
                      CHANNELS 3 Zrotation Xrotation Yrotation
                      End Site
                      {
                        OFFSET -1.4888 -0.4091 -0.3416
                      }
                    }
                  }
                }
                JOINT RightHandThumb1
                {
                  OFFSET -1.833 -1.38751 1.3896
                  CHANNELS 3 Zrotation Xrotation Yrotation
                  JOINT RightHandThumb2
                  {
                    OFFSET -3.41299 -1.12099 2.5732
                    CHANNELS 3 Zrotation Xrotation Yrotation
                    JOINT RightHandThumb3
                    {
                      OFFSET -2.24741 -0.804108 1.6192
                      CHANNELS 3 Zrotation Xrotation Yrotation
                      End Site
                      {
                        OFFSET -1.6527 -0.5689 1.1317
                      }
                    }
                  }
                }
              }
            }
          }
        }
      }
    }
  }
  JOINT RightUpLeg
  {
    OFFSET -9.1966 3.8861 -0.7581
    CHANNELS 3 Zrotation Xrotation Yrotation
    JOINT RightLeg
    {
      OFFSET -0.7359 -41.0265 0
      CHANNELS 3 Zrotation Xrotation Yrotation
      JOINT RightFoot
      {
        OFFSET 0 -40.2855 0
        CHANNELS 3 Zrotation Xrotation Yrotation
        JOINT RightToeBase
        {
          OFFSET 0 -5.6122 11.7359
          CHANNELS 3 Zrotation Xrotation Yrotation
          End Site
          {
            OFFSET 0 0 7.8731
          }
        }
      }
    }
  }
  JOINT LeftUpLeg
  {
    OFFSET 9.1965 3.8864 -0.7581
    CHANNELS 3 Zrotation Xrotation Yrotation
    JOINT LeftLeg
    {
      OFFSET 0.7359 -41.0268 0
      CHANNELS 3 Zrotation Xrotation Yrotation
      JOINT LeftFoot
      {
        OFFSET 0 -40.2855 0
        CHANNELS 3 Zrotation Xrotation Yrotation
        JOINT LeftToeBase
        {
          OFFSET 0 -5.6122 11.7359
          CHANNELS 3 Zrotation Xrotation Yrotation
          End Site
          {
            OFFSET 0 0 7.8731
          }
        }
      }
    }
  }
}
MOTION
Frames:	6
Frame Time:	0.0333333
5.84602e-005 68.8428 3.50346 0 0 -0 0 0 -0 0 0 -0 0 0 -0 0 0 -0 0 0 -0 0 0 -0 0 0 -0 0 0 -0 0 0 -0 0 0 -0 0 0 -0 0 0 -0 0 0 -0 -0.0146107 -8.87603e-005 -2.63497e-007 2.99804e-018 -2.42657e-020 -1.42182e-022 0 0 -0 -0.0187562 -0.001176 5.858e-005 5.06224e-018 3.88251e-019 1.21329e-020 0 0 -0 -0.012269 -0.00324817 0.000675346 -1.74678e-018 3.88251e-019 -0 0 0 -0 0 0 -0 0 0 -0 0 0 -0 0 0 -0 0 0 -0 0 0 -0 0 0 -0 0 0 -0 0 0 -0 0 0 -0 0.0149955 -9.10982e-005 2.64101e-007 -9.69331e-018 1.21329e-020 -4.7394e-023 0 0 -0 0.0189956 -0.00119102 -5.96516e-005 -5.41541e-019 0 2.42657e-020 0 0 -0 0.0122698 -0.00324857 -0.000673756 -2.00796e-019 0 -1.94126e-019 0 0 -0 0 0 -0 0 0 -0 3.39842 1.33031 -0.0637918 -5.65207e-008 0.834868 -0.000436188 -3.39935 -2.16518 -0.0642563 -8.89002e-024 -1.18485e-023 -1.48106e-024 -3.39844 1.35642 0.0640283 -3.18788e-007 0.782166 -0.000588827 3.39931 -2.13858 0.0634662 1.1399e-023 0 -0 
2.53378e-005 -4.85932 -71.0197 -180 -83.3313 -180 -0.0670395 9.11552 -0.11652 -0.117295 18.2312 -0.226466 -0.117295 18.2311 -0.226466 -1.03812e-007 19.2312 -3.01653e-007 -2.25156e-008 9.54106 -1.506e-007 0.623713 0.716469 9.38698 -82.8104 0.687357 32.5253 36.1435 5.60372 -82.3874 -7.77305 25.4764 0.272037 -7.95139e-016 1.26725e-014 -1.98785e-015 1.12476e-006 -1.21266e-006 -2.52058e-007 2.00005e-032 -1.44119e-015 7.95139e-016 -7.95139e-016 1.26725e-014 -1.98785e-015 -0.0146032 -8.85871e-005 3.80676e-006 6.80817e-007 -1.17618e-006 -5.14434e-007 -7.95139e-016 1.26725e-014 -1.98785e-015 -0.0187325 -0.00117355 6.04539e-005 -1.59028e-015 4.07509e-015 -1.59028e-015 -7.95139e-016 1.26725e-014 -1.98785e-015 -0.0122266 -0.00323789 0.000672943 6.80583e-007 -1.17591e-006 -5.14488e-007 -7.95139e-016 1.26725e-014 -1.98785e-015 1.12476e-006 -1.21266e-006 -2.52058e-007 2.00005e-032 -1.44119e-015 7.95139e-016 -0.65926 0.729186 -9.44026 82.8422 0.668361 -32.5344 -36.1496 5.59705 82.3571 7.78337 25.515 -0.246343 7.95139e-016 9.44227e-015 7.95139e-016 -2.66903e-031 6.41081e-015 2.38542e-015 7.95139e-016 9.93923e-015 2.38542e-015 7.95139e-016 9.44227e-015 7.95139e-016 0.0149831 -9.1622e-005 1.34225e-006 -7.95139e-016 -1.44119e-015 -7.95139e-016 7.95139e-016 9.44227e-015 7.95139e-016 0.0189945 -0.00118896 -6.00471e-005 7.5864e-033 5.46658e-016 -7.95139e-016 7.95139e-016 9.44227e-015 7.95139e-016 0.012299 -0.00325262 -0.00067665 7.95139e-016 -7.95139e-016 1.59028e-015 7.95139e-016 9.44227e-015 7.95139e-016 -2.66903e-031 6.41081e-015 2.38542e-015 7.95139e-016 9.93923e-015 2.38542e-015 -44.7121 -43.1954 -9.92781 172.876 70.2559 -176.65 -8.49212 15.8359 -2.51333 2.72008e-007 2.81888e-007 -9.67743e-007 44.7923 -43.1918 10.0244 -172.88 70.2555 176.648 8.56616 15.8225 2.45732 1.9474e-007 -8.31959e-008 -2.61833e-008 
-0.000123458 0.246017 -65.2571 -180 -89.9981 -180 -0.0603463 8.06055 -0.110005 -0.106486 16.1212 -0.214573 -0.106486 16.1212 -0.214574 1.81761e-006 17.3533 -1.8019e-006 8.81821e-008 8.2005 -1.43846e-007 0.480672 2.05636 9.52356 -76.7439 0.795978 30.2208 33.0836 8.3222 -77.4778 -8.05186 24.4289 0.444707 2.66948e-006 2.07879e-006 2.76611e-007 2.33131e-006 -2.07934e-007 -5.93975e-007 2.12338e-006 -2.53925e-006 -6.13401e-007 2.66948e-006 2.07879e-006 2.76611e-007 -0.014625 -8.78632e-005 -6.90975e-006 2.12345e-006 -2.53917e-006 -6.13726e-007 2.66948e-006 2.07879e-006 2.76611e-007 -0.0187519 -0.00117315 6.50475e-005 2.12346e-006 -2.53914e-006 -6.13838e-007 2.66948e-006 2.07879e-006 2.76611e-007 -0.0122749 -0.00325181 0.000678584 2.12341e-006 -2.53918e-006 -6.13736e-007 2.66948e-006 2.07879e-006 2.76611e-007 2.33131e-006 -2.07934e-007 -5.93975e-007 2.12338e-006 -2.53925e-006 -6.13401e-007 -0.683895 2.13746 -9.84425 77.055 0.656772 -30.2637 -33.1109 8.20243 77.2622 8.14035 24.6794 -0.265513 7.95139e-016 3.23025e-015 -1.59028e-015 7.95139e-016 -1.98785e-016 1.59028e-015 -3.97569e-016 -3.27995e-015 -1.59028e-015 7.95139e-016 3.23025e-015 -1.59028e-015 0.0149959 -9.0035e-005 2.55743e-006 7.95139e-016 -3.97569e-015 -0 7.95139e-016 3.23025e-015 -1.59028e-015 0.018992 -0.0011905 -5.84897e-005 1.61342e-007 1.36561e-007 9.52334e-007 7.95139e-016 3.23025e-015 -1.59028e-015 0.01224 -0.00324516 -0.000679427 3.97569e-016 -2.98177e-016 -0 7.95139e-016 3.23025e-015 -1.59028e-015 7.95139e-016 -1.98785e-016 1.59028e-015 -3.97569e-016 -3.27995e-015 -1.59028e-015 -39.8653 -40.4423 -7.23004 169.33 77.6047 -172.78 -7.13194 14.8925 -2.94564 6.96319e-008 3.65669e-007 -5.11888e-006 40.3735 -40.4255 7.85916 -169.331 77.6057 172.776 7.61631 14.8116 2.60506 -7.87584e-007 3.14432e-007 9.81207e-008 
-0.00026074 0.246608 -65.257 -180 -89.9981 -180 -0.0584542 7.65997 -0.111246 -0.103146 15.32 -0.217483 -0.103147 15.32 -0.217484 1.40889e-006 16.8367 -1.5401e-006 5.07301e-008 7.56076 -3.04373e-008 0.36313 3.35441 10.2606 -76.435 0.927142 30.1629 33.0836 8.32222 -77.4778 -8.82902 25.0904 0.638605 2.33241e-006 -2.09207e-007 -5.89261e-007 2.33241e-006 -2.09207e-007 -5.89261e-007 2.33241e-006 -2.09207e-007 -5.89261e-007 2.33241e-006 -2.09207e-007 -5.89261e-007 -0.0145927 -8.98602e-005 7.03986e-007 2.3324e-006 -2.09132e-007 -5.8929e-007 2.33241e-006 -2.09207e-007 -5.89261e-007 -0.0187568 -0.00117632 6.92993e-005 2.3324e-006 -2.09112e-007 -5.89319e-007 2.33241e-006 -2.09207e-007 -5.89261e-007 -0.012285 -0.00325316 0.000672901 2.33239e-006 -2.09158e-007 -5.8935e-007 2.33241e-006 -2.09207e-007 -5.89261e-007 2.33241e-006 -2.09207e-007 -5.89261e-007 2.33241e-006 -2.09207e-007 -5.89261e-007 -0.718699 3.50297 -10.8317 77.0092 0.674938 -30.2388 -33.1311 8.10749 77.093 8.991 25.5435 -0.317619 -2.32304e-006 -2.37939e-007 6.14813e-007 -2.32304e-006 -2.37939e-007 6.14813e-007 -2.32304e-006 -2.37939e-007 6.14813e-007 -2.32304e-006 -2.37939e-007 6.14813e-007 0.0149929 -9.30699e-005 -6.36541e-006 -2.32303e-006 -2.37858e-007 6.14846e-007 -2.32304e-006 -2.37939e-007 6.14813e-007 0.0189868 -0.00118911 -5.99897e-005 -2.32303e-006 -2.37838e-007 6.14876e-007 -2.32304e-006 -2.37939e-007 6.14813e-007 0.0122669 -0.0032471 -0.000680308 -2.32301e-006 -2.37887e-007 6.14904e-007 -2.32304e-006 -2.37939e-007 6.14813e-007 -2.32304e-006 -2.37939e-007 6.14813e-007 -2.32304e-006 -2.37939e-007 6.14813e-007 -38.7258 -40.5057 -5.81506 169.332 77.6028 -172.781 -6.05766 15.0446 -3.68283 9.84605e-008 3.93132e-008 -1.21471e-008 39.6472 -40.4884 6.95391 -169.332 77.6048 172.777 6.93383 14.9081 3.06967 -1.96907e-007 7.85983e-008 2.44783e-008 
-0.000389515 0.247208 -65.2569 -180 -89.9981 -180 -0.056566 7.25866 -0.11245 -0.0998527 14.5175 -0.220295 -0.0998527 14.5175 -0.220295 1.4756e-006 16.3182 -8.24366e-007 -8.63942e-008 6.91991 -4.35059e-008 0.228629 4.65116 11.0016 -76.1259 1.058 30.1043 33.0836 8.32218 -77.4778 -9.61303 25.7495 0.843518 -1.98785e-016 -3.47873e-015 -1.59028e-015 -2.33343e-006 2.10179e-007 5.84876e-007 7.95139e-016 1.10822e-014 1.59028e-015 -1.98785e-016 -3.47873e-015 -1.59028e-015 -0.0146176 -8.73741e-005 -5.40429e-007 1.39149e-015 4.12478e-015 3.18055e-015 -1.98785e-016 -3.47873e-015 -1.59028e-015 -0.0187485 -0.00117692 5.73863e-005 -9.93923e-016 2.93207e-015 -3.18055e-015 -1.98785e-016 -3.47873e-015 -1.59028e-015 -0.0122504 -0.00324422 0.000682094 -1.19271e-015 -1.98785e-015 -1.59028e-015 -1.98785e-016 -3.47873e-015 -1.59028e-015 -2.33343e-006 2.10179e-007 5.84876e-007 7.95139e-016 1.10822e-014 1.59028e-015 -0.729949 4.86932 -11.8203 76.9632 0.693078 -30.2139 -33.1515 8.01256 76.9238 9.84892 26.4069 -0.384442 2.32252e-006 2.4165e-007 -6.15284e-007 3.36296e-006 1.52374e-006 -9.32401e-007 2.32252e-006 2.4165e-007 -6.15284e-007 2.32252e-006 2.4165e-007 -6.15284e-007 0.0150035 -8.84855e-005 3.64143e-006 2.32252e-006 2.41569e-007 -6.15318e-007 2.32252e-006 2.4165e-007 -6.15284e-007 0.0189843 -0.00118557 -5.77825e-005 2.32251e-006 2.41549e-007 -6.15348e-007 2.32252e-006 2.4165e-007 -6.15284e-007 0.012297 -0.00325458 -0.000684406 2.3225e-006 2.41598e-007 -6.15376e-007 2.32252e-006 2.4165e-007 -6.15284e-007 3.36296e-006 1.52374e-006 -9.32401e-007 2.32252e-006 2.4165e-007 -6.15284e-007 -37.5842 -40.5469 -4.39792 169.333 77.6015 -172.782 -4.98042 15.1834 -4.42376 -7.80877e-008 -1.82913e-007 1.91986e-006 38.9194 -40.5422 6.04699 -169.333 77.6044 172.777 6.24995 14.9993 3.53589 1.96918e-007 -7.85895e-008 -2.44262e-008 
-0.000515448 0.247818 -65.2568 -180 -89.9981 -180 -0.0546848 6.85761 -0.113614 -0.0966078 13.7154 -0.223005 -0.0966078 13.7153 -0.223005 5.50102e-006 15.8001 -2.37014e-006 -6.38581e-008 6.27801 -5.37936e-008 0.0770074 5.94595 11.7472 -75.8166 1.18856 30.0449 33.0836 8.32221 -77.4778 -10.4041 26.406 1.05964 -5.96354e-016 8.54774e-015 -1.59028e-015 1.98785e-016 8.74653e-015 -1.59028e-015 5.96354e-016 8.99501e-015 -1.59028e-015 -5.96354e-016 8.54774e-015 -1.59028e-015 -0.0146109 -8.78552e-005 -2.62436e-006 1.46603e-007 1.1111e-008 8.59151e-007 -5.96354e-016 8.54774e-015 -1.59028e-015 -0.0187713 -0.00117514 6.61537e-005 -1.98785e-016 1.56046e-014 -1.59028e-015 -5.96354e-016 8.54774e-015 -1.59028e-015 -0.0122029 -0.00323081 0.000675924 2.38542e-015 -2.38542e-015 9.54166e-015 -5.96354e-016 8.54774e-015 -1.59028e-015 1.98785e-016 8.74653e-015 -1.59028e-015 5.96354e-016 8.99501e-015 -1.59028e-015 -0.717507 6.23551 -12.8108 76.9171 0.711236 -30.1888 -33.1722 7.91769 76.7547 10.7145 27.2694 -0.46633 2.32191e-006 2.44791e-007 -6.16317e-007 1.03856e-006 1.28335e-006 -3.18171e-007 2.32191e-006 2.44791e-007 -6.16317e-007 2.32191e-006 2.44791e-007 -6.16317e-007 0.0149954 -9.32938e-005 -6.42773e-006 2.32191e-006 2.44711e-007 -6.16351e-007 2.32191e-006 2.44791e-007 -6.16317e-007 0.0189831 -0.00118919 -5.52929e-005 2.3219e-006 2.44691e-007 -6.16381e-007 2.32191e-006 2.44791e-007 -6.16317e-007 0.0122449 -0.00324146 -0.000676596 1.21219e-006 1.58076e-006 -3.77148e-006 2.32191e-006 2.44791e-007 -6.16317e-007 1.03856e-006 1.28335e-006 -3.18171e-007 2.32191e-006 2.44791e-007 -6.16317e-007 -36.4413 -40.5666 -2.97945 169.334 77.6004 -172.782 -3.90069 15.3087 -5.16794 -9.84789e-008 -3.93128e-008 1.20122e-008 38.1896 -40.5873 5.13815 -169.333 77.6038 172.777 5.56482 15.0851 4.00366 7.94503e-031 4.77083e-015 -9.54166e-015 
